<?xml version="1.0" encoding="iso-8859-1"?>
<!-- Uploaded to: SVG Repo, www.svgrepo.com, Generator: SVG Repo Mixer Tools -->
<svg height="800px" width="800px" version="1.1" id="Layer_1" xmlns="http://www.w3.org/2000/svg" xmlns:xlink="http://www.w3.org/1999/xlink" 
	 viewBox="0 0 512 512" xml:space="preserve">
<path style="fill:#FF9737;" d="M227.549,380.888c-8.297,12.203-13.238,27.303-13.238,43.684c0,31.681,18.365,58.661,44.079,68.894
	c25.713-10.235,44.079-37.214,44.079-68.894c0-16.381-4.939-31.481-13.237-43.684H227.549z"/>
<path style="opacity:0.1;fill:#231F20;enable-background:new    ;" d="M230.882,428.281c0-17.629,5.051-33.945,13.605-47.394
	h-16.939c-8.297,12.203-13.238,27.303-13.238,43.684c0,31.681,18.365,58.661,44.079,68.894c0.299-0.119,0.594-0.253,0.893-0.377
	C241.971,477.853,230.882,454.49,230.882,428.281z"/>
<path style="fill:#578CAD;" d="M411.42,239.046l-75.2-74.732c-1.619-1.61-3.81-2.514-6.094-2.514H186.657
	c-2.284,0-4.474,0.904-6.094,2.514l-75.202,74.733c-1.633,1.623-2.552,3.83-2.552,6.132v107.43c0,4.776,3.871,8.646,8.646,8.646
	h293.87c4.775,0,8.646-3.87,8.646-8.646v-107.43C413.971,242.876,413.053,240.67,411.42,239.046z"/>
<path style="opacity:0.1;fill:#231F20;enable-background:new    ;" d="M119.73,358.013v-107.43c0-2.302,0.919-4.51,2.552-6.132
	l75.202-74.733c1.62-1.61,3.811-2.514,6.094-2.514h135.549l-2.908-2.89c-1.619-1.61-3.81-2.514-6.094-2.514H186.657
	c-2.284,0-4.474,0.904-6.094,2.514l-75.202,74.733c-1.633,1.623-2.552,3.83-2.552,6.132v107.43c0,4.776,3.871,8.646,8.646,8.646
	h8.91C119.958,360.254,119.73,359.161,119.73,358.013z"/>
<path style="fill:#CAE9F7;" d="M262.975,19.682c-2.864-1.531-6.305-1.531-9.169,0c-44.951,24.025-72.876,70.641-72.876,121.657
	v228.342c0,11.312,9.204,20.515,20.516,20.515h113.89c11.312,0,20.515-9.204,20.515-20.515V141.339
	C335.852,90.323,307.928,43.706,262.975,19.682z"/>
<path style="fill:#90C8EC;" d="M180.93,338.461v31.221c0,11.331,9.184,20.515,20.516,20.515h48.284h30.773h34.832
	c11.329,0,20.515-9.184,20.515-20.515v-31.221H180.93z"/>
<circle style="fill:#578CAD;" cx="258.395" cy="166.932" r="33.622"/>
<g>
	<path style="opacity:0.1;fill:#231F20;enable-background:new    ;" d="M197.852,369.681v-2.583
		c-0.499-1.769-0.785-3.627-0.785-5.554V133.203c0-46.446,23.151-89.238,61.219-114.663c-1.541,0.016-3.079,0.393-4.48,1.142
		c-44.951,24.025-72.876,70.641-72.876,121.657v228.342c0,11.312,9.204,20.515,20.516,20.515h16.921
		C207.054,390.196,197.852,380.993,197.852,369.681z"/>
	<path style="opacity:0.1;fill:#231F20;enable-background:new    ;" d="M241.689,166.928c0-15.646,10.689-28.794,25.162-32.547
		c-2.703-0.7-5.538-1.075-8.46-1.075c-18.569,0-33.623,15.054-33.623,33.621c0,18.572,15.054,33.622,33.623,33.622
		c2.922,0,5.757-0.374,8.46-1.075C252.377,195.725,241.689,182.577,241.689,166.928z"/>
</g>
<path style="fill:#578CAD;" d="M258.391,421.79c-4.476,0-8.106-3.629-8.106-8.106V308.829c0-4.476,3.629-8.106,8.106-8.106
	c4.478,0,8.106,3.629,8.106,8.106v104.856C266.496,418.161,262.868,421.79,258.391,421.79z"/>
<g>
	<path style="fill:#90C8EC;" d="M443.547,411.523c-9.096,0-18.082,1.816-26.406,5.291c-4.541-14.423-18.039-24.912-33.942-24.912
		c-19.617,0-35.577,15.959-35.577,35.578c0,4.476,3.629,8.106,8.106,8.106s8.106-3.629,8.106-8.106
		c0-10.679,8.687-19.367,19.366-19.367c10.679,0,19.367,8.688,19.367,19.367c0,4.576-1.624,9.016-4.575,12.501
		c-2.892,3.417-2.465,8.531,0.952,11.423c1.522,1.288,3.382,1.918,5.232,1.918c2.302,0,4.588-0.975,6.193-2.869
		c3.924-4.637,6.564-10.194,7.728-16.094c7.74-4.325,16.521-6.624,25.45-6.624c28.806,0,52.242,23.436,52.242,52.242
		c0,4.476,3.628,8.106,8.106,8.106c4.478,0,8.106-3.629,8.106-8.106C512,442.23,481.292,411.523,443.547,411.523z"/>
	<path style="fill:#90C8EC;" d="M151.987,442.568c-1.723,0-3.417,0.119-5.085,0.327c0.008-0.911-0.13-1.838-0.447-2.748
		c-6.285-17.949-23.301-30.01-42.344-30.01c-14.043,0-27.282,6.624-35.743,17.772c-4.499-1.188-9.193-1.815-13.992-1.815
		C24.393,426.094,0,450.487,0,480.47c0,4.476,3.629,8.106,8.106,8.106s8.106-3.629,8.106-8.106
		c0-21.044,17.121-38.164,38.165-38.164c13.205,0,25.292,6.683,32.333,17.876c2.383,3.788,7.388,4.927,11.177,2.544
		c3.789-2.384,4.929-7.388,2.544-11.177c-4.333-6.887-10.011-12.567-16.576-16.806c5.331-5.319,12.609-8.395,20.257-8.395
		c12.164,0,23.032,7.698,27.043,19.156c0.275,0.784,0.665,1.49,1.133,2.126c-12.658,6.975-21.255,20.447-21.255,35.891
		c0,4.476,3.629,8.106,8.106,8.106c4.476,0,8.106-3.629,8.106-8.106c0-13.643,11.1-24.744,24.744-24.744
		c13.643,0,24.744,11.1,24.744,24.744c0,4.476,3.629,8.106,8.106,8.106s8.106-3.629,8.106-8.106
		C192.942,460.94,174.569,442.568,151.987,442.568z"/>
</g>
</svg>